<svg viewBox="-2.4 -2.4 28.80 28.80" fill="none" xmlns="http://www.w3.org/2000/svg"><g id="SVGRepo_bgCarrier" stroke-width="0" transform="translate(3.4800000000000004,3.4800000000000004), scale(0.71)"><rect x="-2.4" y="-2.4" width="28.80" height="28.80" rx="7.776" fill="#e79f23" strokewidth="0"></rect></g><g id="SVGRepo_tracerCarrier" stroke-linecap="round" stroke-linejoin="round"></g><g id="SVGRepo_iconCarrier"> <path d="M3 12C3 4.5885 4.5885 3 12 3C19.4115 3 21 4.5885 21 12C21 19.4115 19.4115 21 12 21C4.5885 21 3 19.4115 3 12Z" stroke="#323232" stroke-width="1.104"></path> <path d="M10.9 8.8L10.6577 8.66152C10.1418 8.36676 9.5 8.73922 9.5 9.33333L9.5 14.6667C9.5 15.2608 10.1418 15.6332 10.6577 15.3385L10.9 15.2L15.1 12.8C15.719 12.4463 15.719 11.5537 15.1 11.2L10.9 8.8Z" stroke="#323232" stroke-width="1.104" stroke-linecap="round" stroke-linejoin="round"></path> </g></svg>